<svg width="494" height="232" viewBox="0 0 494 232" fill="none" xmlns="http://www.w3.org/2000/svg">
<g filter="url(#filter0_b_0_496)">
<g clip-path="url(#clip0_0_496)">
<rect x="0.14209" width="493.858" height="231.898" rx="15.0305" fill="white" fill-opacity="0.18"/>
<rect x="82.9224" y="68.1804" width="11.7769" height="54.1739" rx="5.88847" transform="rotate(90 82.9224 68.1804)" fill="#95ABBC"/>
<rect x="367.207" y="68.1091" width="11.9197" height="269.981" rx="5.95985" transform="rotate(90 367.207 68.1091)" fill="#8FB6D5"/>
<path d="M384.909 70.306C385.685 70.306 386.3 70.4864 386.754 70.8472C387.208 71.2081 387.435 71.7067 387.435 72.343C387.435 72.7621 387.305 73.1443 387.045 73.4896C386.786 73.8349 386.37 74.1492 385.8 74.4325C386.491 74.7623 386.981 75.1095 387.272 75.4743C387.563 75.8351 387.709 76.2542 387.709 76.7314C387.709 77.4376 387.463 78.0022 386.97 78.4251C386.477 78.8441 385.802 79.0537 384.944 79.0537C384.036 79.0537 383.338 78.8558 382.849 78.46C382.36 78.0604 382.116 77.4958 382.116 76.7663C382.116 75.7924 382.709 75.0339 383.897 74.4907C383.361 74.188 382.977 73.8621 382.744 73.5129C382.512 73.1598 382.395 72.7659 382.395 72.3314C382.395 71.7144 382.622 71.2236 383.076 70.8589C383.534 70.4903 384.145 70.306 384.909 70.306ZM383.07 76.7896C383.07 77.2552 383.231 77.618 383.553 77.878C383.879 78.138 384.335 78.2679 384.921 78.2679C385.499 78.2679 385.949 78.1321 386.271 77.8605C386.593 77.5889 386.754 77.2164 386.754 76.7431C386.754 76.3667 386.603 76.033 386.3 75.742C385.998 75.4471 385.47 75.1619 384.717 74.8864C384.139 75.1348 383.72 75.4102 383.46 75.7129C383.2 76.0117 383.07 76.3706 383.07 76.7896ZM384.898 71.0917C384.413 71.0917 384.033 71.2081 383.757 71.4409C383.482 71.6737 383.344 71.9841 383.344 72.3721C383.344 72.7291 383.458 73.0356 383.687 73.2917C383.916 73.5478 384.339 73.8039 384.956 74.06C385.511 73.8272 385.903 73.5769 386.132 73.3092C386.365 73.0414 386.481 72.7291 386.481 72.3721C386.481 71.9802 386.339 71.6698 386.056 71.4409C385.777 71.2081 385.391 71.0917 384.898 71.0917ZM394.553 74.6711C394.553 76.1416 394.321 77.2397 393.855 77.9653C393.393 78.6909 392.685 79.0537 391.731 79.0537C390.815 79.0537 390.119 78.6831 389.641 77.942C389.164 77.197 388.925 76.1067 388.925 74.6711C388.925 73.1889 389.156 72.0889 389.618 71.3711C390.08 70.6532 390.784 70.2943 391.731 70.2943C392.654 70.2943 393.355 70.6688 393.832 71.4176C394.313 72.1665 394.553 73.251 394.553 74.6711ZM389.903 74.6711C389.903 75.9088 390.049 76.811 390.34 77.3775C390.631 77.9401 391.094 78.2214 391.731 78.2214C392.375 78.2214 392.84 77.9362 393.128 77.3658C393.419 76.7916 393.564 75.8933 393.564 74.6711C393.564 73.4488 393.419 72.5545 393.128 71.988C392.84 71.4176 392.375 71.1324 391.731 71.1324C391.094 71.1324 390.631 71.4137 390.34 71.9763C390.049 72.5351 389.903 73.4333 389.903 74.6711ZM396.561 72.9658C396.561 73.6254 396.633 74.1201 396.777 74.4499C396.92 74.7797 397.153 74.9446 397.475 74.9446C398.112 74.9446 398.43 74.285 398.43 72.9658C398.43 71.6543 398.112 70.9986 397.475 70.9986C397.153 70.9986 396.92 71.1615 396.777 71.4875C396.633 71.8134 396.561 72.3062 396.561 72.9658ZM399.227 72.9658C399.227 73.8504 399.078 74.5198 398.779 74.9737C398.484 75.4238 398.049 75.6489 397.475 75.6489C396.932 75.6489 396.509 75.418 396.206 74.9563C395.908 74.4945 395.758 73.831 395.758 72.9658C395.758 72.085 395.902 71.4215 396.189 70.9753C396.48 70.5291 396.909 70.306 397.475 70.306C398.038 70.306 398.47 70.5368 398.773 70.9986C399.076 71.4603 399.227 72.116 399.227 72.9658ZM401.683 76.3764C401.683 77.0399 401.755 77.5365 401.899 77.8663C402.042 78.1923 402.277 78.3552 402.603 78.3552C402.929 78.3552 403.169 78.1942 403.324 77.8722C403.48 77.5462 403.557 77.0476 403.557 76.3764C403.557 75.7129 403.48 75.2221 403.324 74.9039C403.169 74.5818 402.929 74.4208 402.603 74.4208C402.277 74.4208 402.042 74.5818 401.899 74.9039C401.755 75.2221 401.683 75.7129 401.683 76.3764ZM404.355 76.3764C404.355 77.2572 404.205 77.9245 403.906 78.3785C403.612 78.8286 403.177 79.0537 402.603 79.0537C402.052 79.0537 401.627 78.8228 401.328 78.3611C401.033 77.8993 400.886 77.2378 400.886 76.3764C400.886 75.4956 401.029 74.8321 401.316 74.3859C401.608 73.9397 402.036 73.7166 402.603 73.7166C403.154 73.7166 403.582 73.9455 403.889 74.4034C404.199 74.8573 404.355 75.515 404.355 76.3764ZM402.853 70.4282L398.133 78.9373H397.277L401.997 70.4282H402.853Z" fill="white"/>
<rect x="82.9224" y="107.218" width="11.7769" height="54.1739" rx="5.88847" transform="rotate(90 82.9224 107.218)" fill="#95ABBC"/>
<rect x="177.088" y="107.444" width="11.3237" height="79.8619" rx="5.66185" transform="rotate(90 177.088 107.444)" fill="#0DBBFC"/>
<path d="M197.247 110.765C197.247 111.308 197.093 111.753 196.787 112.098C196.484 112.443 196.054 112.674 195.495 112.791V112.837C196.178 112.923 196.684 113.14 197.014 113.489C197.344 113.838 197.509 114.296 197.509 114.863C197.509 115.674 197.227 116.298 196.665 116.737C196.102 117.171 195.303 117.389 194.267 117.389C193.817 117.389 193.403 117.354 193.027 117.284C192.655 117.218 192.292 117.1 191.939 116.929V116.009C192.307 116.192 192.699 116.331 193.114 116.428C193.533 116.521 193.929 116.568 194.302 116.568C195.772 116.568 196.508 115.992 196.508 114.839C196.508 113.807 195.697 113.291 194.075 113.291H193.237V112.459H194.086C194.75 112.459 195.276 112.313 195.664 112.022C196.052 111.728 196.246 111.32 196.246 110.8C196.246 110.385 196.102 110.059 195.815 109.822C195.532 109.586 195.146 109.467 194.657 109.467C194.284 109.467 193.933 109.518 193.603 109.619C193.273 109.72 192.897 109.906 192.474 110.177L191.985 109.526C192.334 109.25 192.736 109.035 193.19 108.88C193.648 108.72 194.129 108.641 194.633 108.641C195.46 108.641 196.102 108.831 196.56 109.211C197.018 109.588 197.247 110.106 197.247 110.765ZM204.435 113.006C204.435 114.477 204.202 115.575 203.736 116.3C203.274 117.026 202.566 117.389 201.612 117.389C200.696 117.389 200 117.018 199.522 116.277C199.045 115.532 198.806 114.442 198.806 113.006C198.806 111.524 199.037 110.424 199.499 109.706C199.961 108.988 200.665 108.629 201.612 108.629C202.535 108.629 203.236 109.004 203.713 109.753C204.194 110.501 204.435 111.586 204.435 113.006ZM199.784 113.006C199.784 114.244 199.93 115.146 200.221 115.712C200.512 116.275 200.975 116.556 201.612 116.556C202.256 116.556 202.722 116.271 203.009 115.701C203.3 115.127 203.445 114.228 203.445 113.006C203.445 111.784 203.3 110.889 203.009 110.323C202.722 109.753 202.256 109.467 201.612 109.467C200.975 109.467 200.512 109.749 200.221 110.311C199.93 110.87 199.784 111.768 199.784 113.006ZM206.443 111.301C206.443 111.96 206.514 112.455 206.658 112.785C206.801 113.115 207.034 113.28 207.356 113.28C207.993 113.28 208.311 112.62 208.311 111.301C208.311 109.989 207.993 109.334 207.356 109.334C207.034 109.334 206.801 109.496 206.658 109.822C206.514 110.148 206.443 110.641 206.443 111.301ZM209.108 111.301C209.108 112.185 208.959 112.855 208.66 113.309C208.365 113.759 207.931 113.984 207.356 113.984C206.813 113.984 206.39 113.753 206.087 113.291C205.789 112.829 205.639 112.166 205.639 111.301C205.639 110.42 205.783 109.756 206.07 109.31C206.361 108.864 206.79 108.641 207.356 108.641C207.919 108.641 208.352 108.872 208.654 109.334C208.957 109.795 209.108 110.451 209.108 111.301ZM211.564 114.711C211.564 115.375 211.636 115.871 211.78 116.201C211.923 116.527 212.158 116.69 212.484 116.69C212.81 116.69 213.05 116.529 213.206 116.207C213.361 115.881 213.438 115.383 213.438 114.711C213.438 114.048 213.361 113.557 213.206 113.239C213.05 112.917 212.81 112.756 212.484 112.756C212.158 112.756 211.923 112.917 211.78 113.239C211.636 113.557 211.564 114.048 211.564 114.711ZM214.236 114.711C214.236 115.592 214.086 116.26 213.788 116.713C213.493 117.164 213.058 117.389 212.484 117.389C211.933 117.389 211.508 117.158 211.209 116.696C210.914 116.234 210.767 115.573 210.767 114.711C210.767 113.831 210.91 113.167 211.198 112.721C211.489 112.275 211.917 112.052 212.484 112.052C213.035 112.052 213.464 112.28 213.77 112.738C214.081 113.192 214.236 113.85 214.236 114.711ZM212.734 108.763L208.014 117.272H207.158L211.879 108.763H212.734Z" fill="white"/>
<rect x="82.9224" y="145.957" width="11.7769" height="54.1739" rx="5.88847" transform="rotate(90 82.9224 145.957)" fill="#95ABBC"/>
<rect x="414.885" y="145.885" width="11.9197" height="317.66" rx="5.95985" transform="rotate(90 414.885 145.885)" fill="white"/>
<path d="M433.351 156.011H432.408V149.947C432.408 149.442 432.423 148.965 432.454 148.515C432.373 148.596 432.282 148.682 432.181 148.771C432.08 148.86 431.618 149.239 430.796 149.906L430.283 149.242L432.536 147.502H433.351V156.011ZM442.232 151.745C442.232 153.216 441.999 154.314 441.534 155.039C441.072 155.765 440.364 156.128 439.409 156.128C438.494 156.128 437.797 155.757 437.32 155.016C436.843 154.271 436.604 153.181 436.604 151.745C436.604 150.263 436.835 149.163 437.297 148.445C437.758 147.727 438.463 147.368 439.409 147.368C440.333 147.368 441.033 147.743 441.51 148.492C441.992 149.24 442.232 150.325 442.232 151.745ZM437.582 151.745C437.582 152.983 437.727 153.885 438.018 154.451C438.309 155.014 438.773 155.295 439.409 155.295C440.054 155.295 440.519 155.01 440.806 154.44C441.097 153.866 441.243 152.967 441.243 151.745C441.243 150.523 441.097 149.628 440.806 149.062C440.519 148.492 440.054 148.206 439.409 148.206C438.773 148.206 438.309 148.488 438.018 149.05C437.727 149.609 437.582 150.507 437.582 151.745ZM449.053 151.745C449.053 153.216 448.821 154.314 448.355 155.039C447.893 155.765 447.185 156.128 446.231 156.128C445.315 156.128 444.618 155.757 444.141 155.016C443.664 154.271 443.425 153.181 443.425 151.745C443.425 150.263 443.656 149.163 444.118 148.445C444.58 147.727 445.284 147.368 446.231 147.368C447.154 147.368 447.854 147.743 448.332 148.492C448.813 149.24 449.053 150.325 449.053 151.745ZM444.403 151.745C444.403 152.983 444.549 153.885 444.84 154.451C445.131 155.014 445.594 155.295 446.231 155.295C446.875 155.295 447.34 155.01 447.627 154.44C447.918 153.866 448.064 152.967 448.064 151.745C448.064 150.523 447.918 149.628 447.627 149.062C447.34 148.492 446.875 148.206 446.231 148.206C445.594 148.206 445.131 148.488 444.84 149.05C444.549 149.609 444.403 150.507 444.403 151.745ZM451.061 150.04C451.061 150.699 451.133 151.194 451.277 151.524C451.42 151.854 451.653 152.019 451.975 152.019C452.611 152.019 452.93 151.359 452.93 150.04C452.93 148.728 452.611 148.073 451.975 148.073C451.653 148.073 451.42 148.236 451.277 148.561C451.133 148.887 451.061 149.38 451.061 150.04ZM453.727 150.04C453.727 150.924 453.578 151.594 453.279 152.048C452.984 152.498 452.549 152.723 451.975 152.723C451.432 152.723 451.009 152.492 450.706 152.03C450.408 151.569 450.258 150.905 450.258 150.04C450.258 149.159 450.402 148.495 450.689 148.049C450.98 147.603 451.409 147.38 451.975 147.38C452.538 147.38 452.97 147.611 453.273 148.073C453.576 148.534 453.727 149.19 453.727 150.04ZM456.183 153.45C456.183 154.114 456.255 154.611 456.398 154.94C456.542 155.266 456.777 155.429 457.103 155.429C457.429 155.429 457.669 155.268 457.824 154.946C457.98 154.62 458.057 154.122 458.057 153.45C458.057 152.787 457.98 152.296 457.824 151.978C457.669 151.656 457.429 151.495 457.103 151.495C456.777 151.495 456.542 151.656 456.398 151.978C456.255 152.296 456.183 152.787 456.183 153.45ZM458.855 153.45C458.855 154.331 458.705 154.999 458.406 155.452C458.112 155.903 457.677 156.128 457.103 156.128C456.552 156.128 456.127 155.897 455.828 155.435C455.533 154.973 455.386 154.312 455.386 153.45C455.386 152.57 455.529 151.906 455.816 151.46C456.107 151.014 456.536 150.791 457.103 150.791C457.654 150.791 458.082 151.019 458.389 151.477C458.699 151.931 458.855 152.589 458.855 153.45ZM457.353 147.502L452.633 156.011H451.777L456.497 147.502H457.353Z" fill="white"/>
<rect x="82.9224" y="184.696" width="11.7769" height="54.1739" rx="5.88847" transform="rotate(90 82.9224 184.696)" fill="#95ABBC"/>
<rect x="351.115" y="184.922" width="11.3237" height="253.889" rx="5.66186" transform="rotate(90 351.115 184.922)" fill="#65E4A3"/>
<path d="M367.078 194.75L370.605 187.132H365.966V186.241H371.629V187.015L368.149 194.75H367.078ZM375.482 189.553C376.378 189.553 377.083 189.776 377.595 190.222C378.111 190.664 378.369 191.272 378.369 192.044C378.369 192.925 378.087 193.615 377.525 194.116C376.966 194.616 376.194 194.867 375.208 194.867C374.25 194.867 373.519 194.713 373.014 194.407V193.476C373.286 193.65 373.623 193.788 374.027 193.889C374.43 193.986 374.828 194.034 375.22 194.034C375.903 194.034 376.433 193.873 376.809 193.551C377.189 193.229 377.379 192.764 377.379 192.154C377.379 190.967 376.652 190.373 375.197 190.373C374.828 190.373 374.335 190.43 373.718 190.542L373.218 190.222L373.538 186.241H377.769V187.132H374.365L374.149 189.687C374.595 189.597 375.04 189.553 375.482 189.553ZM380.47 188.779C380.47 189.438 380.542 189.933 380.685 190.263C380.829 190.593 381.062 190.758 381.384 190.758C382.02 190.758 382.338 190.098 382.338 188.779C382.338 187.467 382.02 186.812 381.384 186.812C381.062 186.812 380.829 186.975 380.685 187.3C380.542 187.626 380.47 188.119 380.47 188.779ZM383.136 188.779C383.136 189.663 382.986 190.333 382.687 190.787C382.392 191.237 381.958 191.462 381.384 191.462C380.84 191.462 380.417 191.231 380.115 190.769C379.816 190.308 379.667 189.644 379.667 188.779C379.667 187.898 379.81 187.234 380.097 186.788C380.388 186.342 380.817 186.119 381.384 186.119C381.946 186.119 382.379 186.35 382.682 186.812C382.984 187.273 383.136 187.929 383.136 188.779ZM385.592 192.189C385.592 192.853 385.663 193.35 385.807 193.679C385.951 194.005 386.185 194.168 386.511 194.168C386.837 194.168 387.078 194.007 387.233 193.685C387.388 193.359 387.466 192.861 387.466 192.189C387.466 191.526 387.388 191.035 387.233 190.717C387.078 190.395 386.837 190.234 386.511 190.234C386.185 190.234 385.951 190.395 385.807 190.717C385.663 191.035 385.592 191.526 385.592 192.189ZM388.263 192.189C388.263 193.07 388.114 193.738 387.815 194.192C387.52 194.642 387.085 194.867 386.511 194.867C385.96 194.867 385.535 194.636 385.237 194.174C384.942 193.712 384.794 193.051 384.794 192.189C384.794 191.309 384.938 190.645 385.225 190.199C385.516 189.753 385.945 189.53 386.511 189.53C387.062 189.53 387.491 189.758 387.797 190.216C388.108 190.67 388.263 191.328 388.263 192.189ZM386.761 186.241L382.041 194.75H381.186L385.906 186.241H386.761Z" fill="white"/>
<circle cx="18.9852" cy="18.8431" r="4.71077" fill="#FC5B00"/>
<circle cx="37.8282" cy="18.8431" r="4.71077" fill="#ECAA00"/>
<circle cx="56.6712" cy="18.8431" r="4.71077" fill="#009D10"/>
</g>
</g>
<defs>
<filter id="filter0_b_0_496" x="-68.5686" y="-68.7107" width="631.279" height="369.32" filterUnits="userSpaceOnUse" color-interpolation-filters="sRGB">
<feFlood flood-opacity="0" result="BackgroundImageFix"/>
<feGaussianBlur in="BackgroundImageFix" stdDeviation="34.3553"/>
<feComposite in2="SourceAlpha" operator="in" result="effect1_backgroundBlur_0_496"/>
<feBlend mode="normal" in="SourceGraphic" in2="effect1_backgroundBlur_0_496" result="shape"/>
</filter>
<clipPath id="clip0_0_496">
<rect x="0.14209" width="493.858" height="231.898" rx="15.0305" fill="white"/>
</clipPath>
</defs>
</svg>
