<svg width="315" height="452" viewBox="0 0 315 452" fill="none" xmlns="http://www.w3.org/2000/svg">
<g filter="url(#filter0_d_0_329)">
<rect x="32" y="28" width="251" height="388" rx="12" fill="white"/>
</g>
<g clip-path="url(#clip0_0_329)">
<rect width="11.3333" height="49.7375" transform="matrix(1 0 0 -1 73 295.21)" fill="#0DBBFC"/>
<rect width="11.3333" height="28.8251" transform="matrix(1 0 0 -1 95.6667 274.297)" fill="#0DBBFC"/>
<rect x="118.333" y="112.085" width="11.3333" height="133.387" fill="#0DBBFC"/>
<rect x="141" y="153.345" width="11.3333" height="92.1274" fill="#0DBBFC"/>
<rect x="163.667" y="68" width="11.3333" height="177.472" fill="#0A2640"/>
<rect x="186.333" y="119.998" width="11.3333" height="125.474" fill="#0DBBFC"/>
<rect x="209" y="95.6947" width="11.3333" height="149.778" fill="#0DBBFC"/>
<rect x="231.667" y="177.083" width="11.3333" height="68.389" fill="#0DBBFC"/>
<path d="M78.624 341.324C77.76 341.324 76.944 341.156 76.176 340.82C75.408 340.484 74.74 340.008 74.172 339.392C73.612 338.776 73.208 338.048 72.96 337.208L75.756 336.452C75.956 337.14 76.32 337.672 76.848 338.048C77.384 338.416 77.972 338.596 78.612 338.588C79.18 338.588 79.688 338.456 80.136 338.192C80.584 337.928 80.936 337.572 81.192 337.124C81.448 336.668 81.576 336.16 81.576 335.6C81.576 334.744 81.3 334.028 80.748 333.452C80.196 332.876 79.484 332.588 78.612 332.588C78.348 332.588 78.088 332.624 77.832 332.696C77.584 332.768 77.344 332.868 77.112 332.996L75.792 330.716L81.6 325.748L81.852 326.444H73.632V323.72H84.228V326.456L79.56 330.944L79.536 330.092C80.584 330.164 81.476 330.456 82.212 330.968C82.956 331.48 83.524 332.14 83.916 332.948C84.316 333.756 84.516 334.64 84.516 335.6C84.516 336.688 84.248 337.664 83.712 338.528C83.184 339.392 82.472 340.076 81.576 340.58C80.688 341.076 79.704 341.324 78.624 341.324ZM93.8413 341.36C92.6173 341.36 91.5373 341.1 90.6013 340.58C89.6653 340.052 88.9333 339.32 88.4053 338.384C87.8853 337.448 87.6253 336.368 87.6253 335.144V329.576C87.6253 328.352 87.8853 327.272 88.4053 326.336C88.9333 325.4 89.6653 324.672 90.6013 324.152C91.5373 323.624 92.6173 323.36 93.8413 323.36C95.0653 323.36 96.1413 323.624 97.0693 324.152C98.0053 324.672 98.7373 325.4 99.2653 326.336C99.7933 327.272 100.057 328.352 100.057 329.576V335.144C100.057 336.368 99.7933 337.448 99.2653 338.384C98.7373 339.32 98.0053 340.052 97.0693 340.58C96.1413 341.1 95.0653 341.36 93.8413 341.36ZM93.8413 338.612C94.4493 338.612 95.0013 338.468 95.4973 338.18C95.9933 337.884 96.3853 337.492 96.6733 337.004C96.9613 336.508 97.1053 335.956 97.1053 335.348V329.36C97.1053 328.744 96.9613 328.192 96.6733 327.704C96.3853 327.208 95.9933 326.816 95.4973 326.528C95.0013 326.232 94.4493 326.084 93.8413 326.084C93.2333 326.084 92.6813 326.232 92.1853 326.528C91.6893 326.816 91.2973 327.208 91.0093 327.704C90.7213 328.192 90.5773 328.744 90.5773 329.36V335.348C90.5773 335.956 90.7213 336.508 91.0093 337.004C91.2973 337.492 91.6893 337.884 92.1853 338.18C92.6813 338.468 93.2333 338.612 93.8413 338.612ZM105.822 341L103.902 339.08L119.274 323.72L121.194 325.652L105.822 341ZM117.594 341.36C116.802 341.36 116.078 341.168 115.422 340.784C114.774 340.392 114.254 339.872 113.862 339.224C113.47 338.568 113.274 337.84 113.274 337.04C113.274 336.256 113.474 335.536 113.874 334.88C114.274 334.224 114.802 333.7 115.458 333.308C116.114 332.916 116.826 332.72 117.594 332.72C118.386 332.72 119.11 332.916 119.766 333.308C120.422 333.692 120.942 334.212 121.326 334.868C121.718 335.516 121.914 336.24 121.914 337.04C121.914 337.84 121.718 338.568 121.326 339.224C120.942 339.872 120.422 340.392 119.766 340.784C119.11 341.168 118.386 341.36 117.594 341.36ZM117.594 338.888C117.922 338.888 118.226 338.804 118.506 338.636C118.794 338.468 119.022 338.244 119.19 337.964C119.358 337.684 119.442 337.376 119.442 337.04C119.442 336.704 119.358 336.396 119.19 336.116C119.022 335.836 118.794 335.612 118.506 335.444C118.226 335.276 117.922 335.192 117.594 335.192C117.258 335.192 116.95 335.276 116.67 335.444C116.39 335.612 116.162 335.836 115.986 336.116C115.818 336.396 115.734 336.704 115.734 337.04C115.734 337.376 115.818 337.684 115.986 337.964C116.162 338.244 116.39 338.468 116.67 338.636C116.95 338.804 117.258 338.888 117.594 338.888ZM107.502 332C106.71 332 105.986 331.808 105.33 331.424C104.674 331.032 104.15 330.512 103.758 329.864C103.374 329.208 103.182 328.48 103.182 327.68C103.182 326.896 103.382 326.176 103.782 325.52C104.182 324.864 104.71 324.34 105.366 323.948C106.022 323.556 106.734 323.36 107.502 323.36C108.294 323.36 109.014 323.556 109.662 323.948C110.318 324.332 110.842 324.852 111.234 325.508C111.626 326.156 111.822 326.88 111.822 327.68C111.822 328.48 111.626 329.208 111.234 329.864C110.842 330.512 110.318 331.032 109.662 331.424C109.014 331.808 108.294 332 107.502 332ZM107.502 329.528C107.838 329.528 108.146 329.444 108.426 329.276C108.706 329.108 108.93 328.884 109.098 328.604C109.266 328.324 109.35 328.016 109.35 327.68C109.35 327.344 109.266 327.036 109.098 326.756C108.93 326.476 108.706 326.252 108.426 326.084C108.146 325.916 107.838 325.832 107.502 325.832C107.166 325.832 106.858 325.916 106.578 326.084C106.298 326.252 106.074 326.476 105.906 326.756C105.738 327.036 105.654 327.344 105.654 327.68C105.654 328.016 105.738 328.324 105.906 328.604C106.074 328.884 106.298 329.108 106.578 329.276C106.858 329.444 107.166 329.528 107.502 329.528Z" fill="#0A2640"/>
<path d="M72.98 370V359.92H73.925L77.887 368.397L81.828 359.92H82.787V369.993H81.807V362.216L78.216 370H77.551L73.967 362.216V370H72.98ZM87.9085 370.21C87.1572 370.21 86.5155 370.04 85.9835 369.699C85.4515 369.358 85.0432 368.887 84.7585 368.285C84.4738 367.683 84.3315 366.992 84.3315 366.213C84.3315 365.42 84.4762 364.724 84.7655 364.127C85.0548 363.53 85.4655 363.065 85.9975 362.734C86.5342 362.398 87.1712 362.23 87.9085 362.23C88.6645 362.23 89.3085 362.4 89.8405 362.741C90.3772 363.077 90.7855 363.546 91.0655 364.148C91.3502 364.745 91.4925 365.434 91.4925 366.213C91.4925 367.006 91.3502 367.704 91.0655 368.306C90.7808 368.903 90.3702 369.37 89.8335 369.706C89.2968 370.042 88.6552 370.21 87.9085 370.21ZM87.9085 369.223C88.7485 369.223 89.3738 368.945 89.7845 368.39C90.1952 367.83 90.4005 367.104 90.4005 366.213C90.4005 365.298 90.1928 364.57 89.7775 364.029C89.3668 363.488 88.7438 363.217 87.9085 363.217C87.3438 363.217 86.8772 363.345 86.5085 363.602C86.1445 363.854 85.8715 364.206 85.6895 364.659C85.5122 365.107 85.4235 365.625 85.4235 366.213C85.4235 367.123 85.6335 367.853 86.0535 368.404C86.4735 368.95 87.0918 369.223 87.9085 369.223ZM93.0366 370V362.44H93.9606V364.26L93.7786 364.022C93.8626 363.798 93.9723 363.593 94.1076 363.406C94.243 363.215 94.39 363.058 94.5486 362.937C94.7446 362.764 94.9733 362.634 95.2346 362.545C95.496 362.452 95.7596 362.398 96.0256 362.384C96.2916 362.365 96.5343 362.384 96.7536 362.44V363.406C96.4783 363.336 96.1773 363.32 95.8506 363.357C95.524 363.394 95.223 363.525 94.9476 363.749C94.6956 363.945 94.5066 364.181 94.3806 364.456C94.2546 364.727 94.1706 365.016 94.1286 365.324C94.0866 365.627 94.0656 365.928 94.0656 366.227V370H93.0366ZM101.144 370.21C100.407 370.21 99.7672 370.047 99.2258 369.72C98.6892 369.393 98.2715 368.934 97.9728 368.341C97.6742 367.748 97.5248 367.053 97.5248 366.255C97.5248 365.429 97.6718 364.715 97.9658 364.113C98.2598 363.511 98.6728 363.047 99.2048 362.72C99.7415 362.393 100.374 362.23 101.102 362.23C101.849 362.23 102.486 362.403 103.013 362.748C103.54 363.089 103.939 363.579 104.21 364.218C104.481 364.857 104.604 365.62 104.581 366.507H103.531V366.143C103.512 365.163 103.3 364.423 102.894 363.924C102.493 363.425 101.905 363.175 101.13 363.175C100.318 363.175 99.6948 363.439 99.2608 363.966C98.8315 364.493 98.6168 365.245 98.6168 366.22C98.6168 367.172 98.8315 367.912 99.2608 368.439C99.6948 368.962 100.309 369.223 101.102 369.223C101.643 369.223 102.115 369.099 102.516 368.852C102.922 368.6 103.242 368.238 103.475 367.767L104.434 368.138C104.135 368.796 103.694 369.307 103.111 369.671C102.532 370.03 101.877 370.21 101.144 370.21ZM98.2528 366.507V365.646H104.028V366.507H98.2528ZM109.077 361.005V359.85H110.106V361.005H109.077ZM109.077 370V362.44H110.106V370H109.077ZM117.665 370V366.143C117.665 365.723 117.625 365.338 117.546 364.988C117.466 364.633 117.338 364.325 117.161 364.064C116.988 363.798 116.762 363.593 116.482 363.448C116.206 363.303 115.87 363.231 115.474 363.231C115.11 363.231 114.788 363.294 114.508 363.42C114.232 363.546 113.999 363.728 113.808 363.966C113.621 364.199 113.479 364.484 113.381 364.82C113.283 365.156 113.234 365.539 113.234 365.968L112.506 365.807C112.506 365.032 112.641 364.381 112.912 363.854C113.182 363.327 113.556 362.928 114.032 362.657C114.508 362.386 115.054 362.251 115.67 362.251C116.122 362.251 116.517 362.321 116.853 362.461C117.193 362.601 117.48 362.79 117.714 363.028C117.952 363.266 118.143 363.539 118.288 363.847C118.432 364.15 118.537 364.475 118.603 364.82C118.668 365.161 118.701 365.501 118.701 365.842V370H117.665ZM112.198 370V362.44H113.129V364.302H113.234V370H112.198ZM123.598 370.21C122.838 370.21 122.194 370.04 121.666 369.699C121.139 369.358 120.738 368.889 120.462 368.292C120.192 367.69 120.052 366.999 120.042 366.22C120.052 365.427 120.196 364.731 120.476 364.134C120.756 363.532 121.16 363.065 121.687 362.734C122.215 362.398 122.854 362.23 123.605 362.23C124.371 362.23 125.036 362.417 125.6 362.79C126.17 363.163 126.559 363.674 126.769 364.323L125.761 364.645C125.584 364.192 125.302 363.842 124.914 363.595C124.532 363.343 124.093 363.217 123.598 363.217C123.043 363.217 122.583 363.345 122.219 363.602C121.855 363.854 121.585 364.206 121.407 364.659C121.23 365.112 121.139 365.632 121.134 366.22C121.144 367.125 121.354 367.853 121.764 368.404C122.175 368.95 122.786 369.223 123.598 369.223C124.112 369.223 124.548 369.106 124.907 368.873C125.271 368.635 125.547 368.29 125.733 367.837L126.769 368.145C126.489 368.817 126.079 369.33 125.537 369.685C124.996 370.035 124.35 370.21 123.598 370.21ZM131.166 370.21C130.415 370.21 129.773 370.04 129.241 369.699C128.709 369.358 128.301 368.887 128.016 368.285C127.732 367.683 127.589 366.992 127.589 366.213C127.589 365.42 127.734 364.724 128.023 364.127C128.313 363.53 128.723 363.065 129.255 362.734C129.792 362.398 130.429 362.23 131.166 362.23C131.922 362.23 132.566 362.4 133.098 362.741C133.635 363.077 134.043 363.546 134.323 364.148C134.608 364.745 134.75 365.434 134.75 366.213C134.75 367.006 134.608 367.704 134.323 368.306C134.039 368.903 133.628 369.37 133.091 369.706C132.555 370.042 131.913 370.21 131.166 370.21ZM131.166 369.223C132.006 369.223 132.632 368.945 133.042 368.39C133.453 367.83 133.658 367.104 133.658 366.213C133.658 365.298 133.451 364.57 133.035 364.029C132.625 363.488 132.002 363.217 131.166 363.217C130.602 363.217 130.135 363.345 129.766 363.602C129.402 363.854 129.129 364.206 128.947 364.659C128.77 365.107 128.681 365.625 128.681 366.213C128.681 367.123 128.891 367.853 129.311 368.404C129.731 368.95 130.35 369.223 131.166 369.223ZM145.31 370L145.317 365.037C145.317 364.454 145.154 363.996 144.827 363.665C144.505 363.329 144.095 363.161 143.595 363.161C143.311 363.161 143.033 363.226 142.762 363.357C142.492 363.488 142.268 363.698 142.09 363.987C141.918 364.276 141.831 364.654 141.831 365.121L141.222 364.946C141.208 364.405 141.313 363.931 141.537 363.525C141.766 363.119 142.079 362.804 142.475 362.58C142.877 362.351 143.329 362.237 143.833 362.237C144.594 362.237 145.203 362.473 145.66 362.944C146.118 363.411 146.346 364.043 146.346 364.841L146.339 370H145.31ZM136.287 370V362.44H137.211V364.302H137.323V370H136.287ZM140.809 370L140.816 365.107C140.816 364.505 140.655 364.031 140.333 363.686C140.016 363.336 139.596 363.161 139.073 363.161C138.551 363.161 138.128 363.341 137.806 363.7C137.484 364.055 137.323 364.528 137.323 365.121L136.707 364.785C136.707 364.3 136.822 363.866 137.05 363.483C137.279 363.096 137.592 362.792 137.988 362.573C138.385 362.349 138.835 362.237 139.339 362.237C139.82 362.237 140.247 362.34 140.62 362.545C140.998 362.75 141.295 363.049 141.509 363.441C141.724 363.833 141.831 364.309 141.831 364.869L141.824 370H140.809ZM151.306 370.21C150.569 370.21 149.929 370.047 149.388 369.72C148.851 369.393 148.434 368.934 148.135 368.341C147.836 367.748 147.687 367.053 147.687 366.255C147.687 365.429 147.834 364.715 148.128 364.113C148.422 363.511 148.835 363.047 149.367 362.72C149.904 362.393 150.536 362.23 151.264 362.23C152.011 362.23 152.648 362.403 153.175 362.748C153.702 363.089 154.101 363.579 154.372 364.218C154.643 364.857 154.766 365.62 154.743 366.507H153.693V366.143C153.674 365.163 153.462 364.423 153.056 363.924C152.655 363.425 152.067 363.175 151.292 363.175C150.48 363.175 149.857 363.439 149.423 363.966C148.994 364.493 148.779 365.245 148.779 366.22C148.779 367.172 148.994 367.912 149.423 368.439C149.857 368.962 150.471 369.223 151.264 369.223C151.805 369.223 152.277 369.099 152.678 368.852C153.084 368.6 153.404 368.238 153.637 367.767L154.596 368.138C154.297 368.796 153.856 369.307 153.273 369.671C152.694 370.03 152.039 370.21 151.306 370.21ZM148.415 366.507V365.646H154.19V366.507H148.415ZM159.239 361.005V359.85H160.268V361.005H159.239ZM159.239 370V362.44H160.268V370H159.239ZM167.827 370V366.143C167.827 365.723 167.787 365.338 167.708 364.988C167.628 364.633 167.5 364.325 167.323 364.064C167.15 363.798 166.924 363.593 166.644 363.448C166.368 363.303 166.032 363.231 165.636 363.231C165.272 363.231 164.95 363.294 164.67 363.42C164.394 363.546 164.161 363.728 163.97 363.966C163.783 364.199 163.641 364.484 163.543 364.82C163.445 365.156 163.396 365.539 163.396 365.968L162.668 365.807C162.668 365.032 162.803 364.381 163.074 363.854C163.344 363.327 163.718 362.928 164.194 362.657C164.67 362.386 165.216 362.251 165.832 362.251C166.284 362.251 166.679 362.321 167.015 362.461C167.355 362.601 167.642 362.79 167.876 363.028C168.114 363.266 168.305 363.539 168.45 363.847C168.594 364.15 168.699 364.475 168.765 364.82C168.83 365.161 168.863 365.501 168.863 365.842V370H167.827ZM162.36 370V362.44H163.291V364.302H163.396V370H162.36ZM175.204 370.203C174.532 370.203 173.956 370.016 173.475 369.643C172.994 369.27 172.67 368.77 172.502 368.145L173.531 367.9C173.615 368.269 173.809 368.581 174.112 368.838C174.42 369.09 174.782 369.216 175.197 369.216C175.458 369.216 175.722 369.153 175.988 369.027C176.259 368.901 176.471 368.693 176.625 368.404C176.728 368.203 176.786 367.986 176.8 367.753C176.819 367.515 176.828 367.23 176.828 366.899V359.92H177.864V366.899C177.864 367.179 177.862 367.433 177.857 367.662C177.852 367.886 177.827 368.103 177.78 368.313C177.738 368.518 177.656 368.726 177.535 368.936C177.292 369.361 176.966 369.678 176.555 369.888C176.149 370.098 175.699 370.203 175.204 370.203ZM182.867 370.189C182.414 370.189 182.018 370.119 181.677 369.979C181.341 369.839 181.054 369.65 180.816 369.412C180.583 369.174 180.394 368.903 180.249 368.6C180.104 368.292 179.999 367.968 179.934 367.627C179.869 367.282 179.836 366.939 179.836 366.598V362.44H180.872V366.297C180.872 366.712 180.912 367.097 180.991 367.452C181.07 367.807 181.196 368.117 181.369 368.383C181.546 368.644 181.773 368.847 182.048 368.992C182.328 369.137 182.666 369.209 183.063 369.209C183.427 369.209 183.747 369.146 184.022 369.02C184.302 368.894 184.535 368.714 184.722 368.481C184.913 368.243 185.058 367.956 185.156 367.62C185.254 367.279 185.303 366.897 185.303 366.472L186.031 366.633C186.031 367.408 185.896 368.059 185.625 368.586C185.354 369.113 184.981 369.512 184.505 369.783C184.029 370.054 183.483 370.189 182.867 370.189ZM185.408 370V368.138H185.303V362.44H186.332V370H185.408ZM193.749 370V366.143C193.749 365.723 193.709 365.338 193.63 364.988C193.55 364.633 193.422 364.325 193.245 364.064C193.072 363.798 192.846 363.593 192.566 363.448C192.29 363.303 191.954 363.231 191.558 363.231C191.194 363.231 190.872 363.294 190.592 363.42C190.316 363.546 190.083 363.728 189.892 363.966C189.705 364.199 189.563 364.484 189.465 364.82C189.367 365.156 189.318 365.539 189.318 365.968L188.59 365.807C188.59 365.032 188.725 364.381 188.996 363.854C189.266 363.327 189.64 362.928 190.116 362.657C190.592 362.386 191.138 362.251 191.754 362.251C192.206 362.251 192.601 362.321 192.937 362.461C193.277 362.601 193.564 362.79 193.798 363.028C194.036 363.266 194.227 363.539 194.372 363.847C194.516 364.15 194.621 364.475 194.687 364.82C194.752 365.161 194.785 365.501 194.785 365.842V370H193.749ZM188.282 370V362.44H189.213V364.302H189.318V370H188.282ZM199.745 370.21C199.008 370.21 198.369 370.047 197.827 369.72C197.291 369.393 196.873 368.934 196.574 368.341C196.276 367.748 196.126 367.053 196.126 366.255C196.126 365.429 196.273 364.715 196.567 364.113C196.861 363.511 197.274 363.047 197.806 362.72C198.343 362.393 198.975 362.23 199.703 362.23C200.45 362.23 201.087 362.403 201.614 362.748C202.142 363.089 202.541 363.579 202.811 364.218C203.082 364.857 203.206 365.62 203.182 366.507H202.132V366.143C202.114 365.163 201.901 364.423 201.495 363.924C201.094 363.425 200.506 363.175 199.731 363.175C198.919 363.175 198.296 363.439 197.862 363.966C197.433 364.493 197.218 365.245 197.218 366.22C197.218 367.172 197.433 367.912 197.862 368.439C198.296 368.962 198.91 369.223 199.703 369.223C200.245 369.223 200.716 369.099 201.117 368.852C201.523 368.6 201.843 368.238 202.076 367.767L203.035 368.138C202.737 368.796 202.296 369.307 201.712 369.671C201.134 370.03 200.478 370.21 199.745 370.21ZM196.854 366.507V365.646H202.629V366.507H196.854Z" fill="#0A2640"/>
</g>
<defs>
<filter id="filter0_d_0_329" x="0" y="0" width="315" height="452" filterUnits="userSpaceOnUse" color-interpolation-filters="sRGB">
<feFlood flood-opacity="0" result="BackgroundImageFix"/>
<feColorMatrix in="SourceAlpha" type="matrix" values="0 0 0 0 0 0 0 0 0 0 0 0 0 0 0 0 0 0 127 0" result="hardAlpha"/>
<feOffset dy="4"/>
<feGaussianBlur stdDeviation="16"/>
<feComposite in2="hardAlpha" operator="out"/>
<feColorMatrix type="matrix" values="0 0 0 0 0 0 0 0 0 0 0 0 0 0 0 0 0 0 0.12 0"/>
<feBlend mode="normal" in2="BackgroundImageFix" result="effect1_dropShadow_0_329"/>
<feBlend mode="normal" in="SourceGraphic" in2="effect1_dropShadow_0_329" result="shape"/>
</filter>
<clipPath id="clip0_0_329">
<rect width="171" height="308" fill="white" transform="translate(72 68)"/>
</clipPath>
</defs>
</svg>
