<svg width="1120" height="48" viewBox="0 0 1120 48" fill="none" xmlns="http://www.w3.org/2000/svg">
<g clip-path="url(#clip0_0_455)">
<path d="M35.7676 30.45V4.33904H46.1213C47.8862 4.33904 49.3307 4.69565 50.455 5.40886C51.5913 6.10999 52.4314 7.01057 52.9754 8.11062C53.5314 9.21066 53.8095 10.347 53.8095 11.5195C53.8095 12.9581 53.465 14.179 52.7759 15.1823C52.099 16.1857 51.1742 16.8626 50.0016 17.2132V16.3065C51.6457 16.6813 52.8908 17.461 53.7369 18.6456C54.5952 19.8303 55.0244 21.1782 55.0244 22.6892C55.0244 24.2365 54.7282 25.5904 54.1359 26.7509C53.5435 27.9114 52.6611 28.818 51.4885 29.4708C50.328 30.1236 48.8895 30.45 47.173 30.45H35.7676ZM40.1919 26.3339H46.629C47.3905 26.3339 48.0735 26.1828 48.678 25.8805C49.2824 25.5662 49.7538 25.1311 50.0923 24.575C50.4429 24.0068 50.6181 23.3359 50.6181 22.5623C50.6181 21.8612 50.467 21.2326 50.1648 20.6765C49.8626 20.1204 49.4214 19.6792 48.8412 19.3528C48.2609 19.0143 47.5658 18.8451 46.7559 18.8451H40.1919V26.3339ZM40.1919 14.7653H46.0669C46.6955 14.7653 47.2576 14.6444 47.7532 14.4026C48.2488 14.1609 48.6417 13.8042 48.9318 13.3328C49.2219 12.8614 49.367 12.2811 49.367 11.5921C49.367 10.6854 49.0769 9.92992 48.4966 9.3255C47.9164 8.72108 47.1065 8.41887 46.0669 8.41887H40.1919V14.7653ZM67.295 30.9939C65.3367 30.9939 63.6262 30.5527 62.1635 29.6703C60.7008 28.7878 59.5645 27.5729 58.7546 26.0256C57.9567 24.4662 57.5578 22.6771 57.5578 20.6584C57.5578 18.6033 57.9688 16.8022 58.7908 15.2549C59.6128 13.7075 60.7552 12.4987 62.2179 11.6283C63.6806 10.758 65.373 10.3228 67.295 10.3228C69.2654 10.3228 70.982 10.764 72.4447 11.6465C73.9074 12.5289 75.0437 13.7498 75.8536 15.3092C76.6635 16.8566 77.0685 18.6396 77.0685 20.6584C77.0685 22.6892 76.6575 24.4843 75.8355 26.0437C75.0255 27.591 73.8892 28.8059 72.4265 29.6884C70.9638 30.5587 69.2533 30.9939 67.295 30.9939ZM67.295 26.896C69.0357 26.896 70.3292 26.3157 71.1754 25.1552C72.0216 23.9948 72.4447 22.4958 72.4447 20.6584C72.4447 18.7605 72.0155 17.2494 71.1573 16.1252C70.299 14.9889 69.0116 14.4208 67.295 14.4208C66.1224 14.4208 65.1554 14.6867 64.3938 15.2186C63.6443 15.7384 63.0883 16.4697 62.7256 17.4126C62.363 18.3434 62.1816 19.4253 62.1816 20.6584C62.1816 22.5562 62.6108 24.0733 63.469 25.2096C64.3394 26.3339 65.6147 26.896 67.295 26.896ZM81.4262 30.45V3.79506H85.7962V30.45H81.4262ZM99.0792 30.9939C97.278 30.9939 95.7065 30.5406 94.3647 29.634C93.0229 28.7274 91.9833 27.4943 91.2459 25.9349C90.5085 24.3755 90.1398 22.6167 90.1398 20.6584C90.1398 18.6759 90.5085 16.911 91.2459 15.3636C91.9954 13.8042 93.0531 12.5773 94.4191 11.6827C95.7851 10.7761 97.3928 10.3228 99.2423 10.3228C101.104 10.3228 102.663 10.7761 103.921 11.6827C105.19 12.5773 106.151 13.8042 106.804 15.3636C107.456 16.923 107.783 18.688 107.783 20.6584C107.783 22.6046 107.456 24.3634 106.804 25.9349C106.151 27.4943 105.178 28.7274 103.884 29.634C102.591 30.5406 100.989 30.9939 99.0792 30.9939ZM99.7501 27.0773C100.923 27.0773 101.866 26.8113 102.579 26.2795C103.304 25.7355 103.83 24.98 104.156 24.0129C104.495 23.0458 104.664 21.9276 104.664 20.6584C104.664 19.377 104.495 18.2588 104.156 17.3038C103.83 16.3368 103.316 15.5873 102.615 15.0554C101.914 14.5114 101.007 14.2394 99.8951 14.2394C98.7225 14.2394 97.7555 14.5295 96.9939 15.1098C96.2323 15.6779 95.6702 16.4516 95.3076 17.4308C94.9449 18.3978 94.7636 19.4737 94.7636 20.6584C94.7636 21.8551 94.9389 22.9431 95.2894 23.9222C95.6521 24.8893 96.2021 25.6569 96.9395 26.2251C97.6769 26.7932 98.6138 27.0773 99.7501 27.0773ZM104.664 30.45V16.7055H104.12V4.33904H108.526V30.45H104.664ZM122.259 30.9939C120.301 30.9939 118.591 30.5527 117.128 29.6703C115.665 28.7878 114.529 27.5729 113.719 26.0256C112.921 24.4662 112.522 22.6771 112.522 20.6584C112.522 18.6033 112.933 16.8022 113.755 15.2549C114.577 13.7075 115.72 12.4987 117.182 11.6283C118.645 10.758 120.337 10.3228 122.259 10.3228C124.23 10.3228 125.946 10.764 127.409 11.6465C128.872 12.5289 130.008 13.7498 130.818 15.3092C131.628 16.8566 132.033 18.6396 132.033 20.6584C132.033 22.6892 131.622 24.4843 130.8 26.0437C129.99 27.591 128.854 28.8059 127.391 29.6884C125.928 30.5587 124.218 30.9939 122.259 30.9939ZM122.259 26.896C124 26.896 125.294 26.3157 126.14 25.1552C126.986 23.9948 127.409 22.4958 127.409 20.6584C127.409 18.7605 126.98 17.2494 126.122 16.1252C125.263 14.9889 123.976 14.4208 122.259 14.4208C121.087 14.4208 120.12 14.6867 119.358 15.2186C118.609 15.7384 118.053 16.4697 117.69 17.4126C117.327 18.3434 117.146 19.4253 117.146 20.6584C117.146 22.5562 117.575 24.0733 118.433 25.2096C119.304 26.3339 120.579 26.896 122.259 26.896Z" fill="white"/>
<path d="M0 16.45H14.3176C19.201 16.45 23.1597 20.4087 23.1597 25.2921C23.1597 30.1754 19.201 34.1342 14.3176 34.1342H0V16.45Z" fill="white"/>
<path d="M0 0.976318H9.47954C13.1421 0.976318 16.1111 3.94538 16.1111 7.6079C16.1111 11.2704 13.1421 14.2395 9.47954 14.2395H0V0.976318Z" fill="white"/>
<g clip-path="url(#clip1_0_455)">
<g clip-path="url(#clip2_0_455)">
<path d="M210.34 2.69273C210.302 2.62059 210.279 2.54179 210.272 2.46082C210.265 2.37986 210.275 2.29833 210.299 2.22088C210.324 2.14343 210.363 2.07159 210.416 2.00946C210.468 1.94732 210.532 1.89611 210.604 1.85876C212.819 0.73277 215.278 0.175537 217.762 0.237293C220.245 0.29905 222.674 0.977855 224.829 2.21251C224.9 2.25317 224.962 2.30743 225.012 2.37215C225.061 2.43687 225.098 2.51078 225.119 2.58962C225.14 2.66845 225.145 2.75065 225.134 2.83146C225.123 2.91228 225.096 2.99012 225.054 3.06049L217.933 15.2818C217.879 15.3754 217.801 15.453 217.707 15.5069C217.613 15.5608 217.507 15.5891 217.399 15.589H217.383C217.272 15.586 217.164 15.5534 217.07 15.4946C216.976 15.4358 216.9 15.3529 216.848 15.2545L210.34 2.69273ZM217.017 18.8483V18.8471L210.508 6.28529C210.432 6.13986 210.302 6.03024 210.146 5.98037C209.99 5.9305 209.82 5.94442 209.674 6.0191C207.94 6.90861 206.397 8.13195 205.137 9.61893C203.876 11.1059 202.921 12.8272 202.327 14.6841C201.734 16.541 201.512 18.4969 201.676 20.4395C201.84 22.3821 202.386 24.2732 203.283 26.0043C204.18 27.7353 205.409 29.2722 206.902 30.5268C208.394 31.7814 210.119 32.729 211.978 33.3151C213.838 33.9012 215.795 34.1143 217.736 33.9423C219.678 33.7702 221.567 33.2164 223.294 32.3125C223.44 32.2365 223.549 32.1062 223.598 31.9501C223.648 31.7939 223.633 31.6246 223.558 31.479L217.017 18.8483ZM224.647 30.7218L224.696 30.8209C224.771 30.967 224.9 31.0781 225.056 31.1306C225.119 31.1517 225.187 31.1601 225.254 31.1553C225.352 31.1526 225.448 31.1316 225.539 31.0934C225.764 30.9817 225.983 30.8576 226.195 30.7218C226.825 30.3563 227.426 29.9422 227.991 29.4832H224.003L224.647 30.7218ZM223.359 28.2445H229.341C229.726 27.858 230.082 27.4441 230.407 27.0059H222.715L223.359 28.2445ZM222.083 25.7673H231.286C231.54 25.3696 231.767 24.9558 231.967 24.5286H221.439L222.083 25.7673ZM220.795 23.29H232.512C232.677 22.8856 232.817 22.472 232.933 22.0513H220.151L220.795 23.29ZM219.506 20.8127H233.243C233.317 20.4039 233.379 19.9952 233.416 19.574H218.875L219.506 20.8127ZM226.146 5.15627C226.076 5.11304 225.998 5.08515 225.917 5.07447C225.836 5.06379 225.753 5.07056 225.675 5.09434C225.595 5.11266 225.519 5.14744 225.453 5.19648C225.387 5.24552 225.332 5.30775 225.291 5.37922L224.957 5.949H227.347C226.961 5.66346 226.56 5.39883 226.146 5.15627ZM228.846 7.18764H224.238L223.52 8.42628H230.023C229.656 7.98967 229.263 7.57601 228.846 7.18764ZM230.952 9.66492H222.789L222.07 10.9036H231.707C231.484 10.474 231.231 10.0602 230.952 9.66492ZM232.302 12.1422H221.352L220.634 13.3808H232.785C232.647 12.9591 232.486 12.5455 232.302 12.1422ZM233.132 14.6195H219.903L219.184 15.8581H233.354C233.305 15.4411 233.231 15.0275 233.132 14.6195ZM233.478 17.0968H218.466L218.169 17.6046C218.115 17.694 218.086 17.796 218.084 17.9002C218.081 18.0045 218.106 18.1076 218.156 18.1992L218.231 18.3354H233.503C233.516 18.2115 233.516 18.0753 233.516 17.9514C233.516 17.6665 233.503 17.3817 233.478 17.0968Z" fill="white"/>
<path d="M210.055 5.40689C209.828 4.97667 209.294 4.80987 208.877 5.06066C205.577 7.04602 203.112 10.1819 201.968 13.8808C200.738 17.8609 201.139 22.1668 203.083 25.8512C205.028 29.5356 208.356 32.2966 212.336 33.527C216.035 34.6704 220.015 34.4048 223.516 32.801C223.959 32.5984 224.122 32.0631 223.895 31.6329L216.975 18.5199L210.055 5.40689Z" fill="white"/>
</g>
<path d="M255.616 6.48686C257.337 6.48686 258.804 6.76315 260.015 7.31571C261.226 7.86828 262.151 8.66525 262.789 9.70662C263.426 10.748 263.745 12.0125 263.745 13.5002C263.745 14.9879 263.426 16.2524 262.789 17.2938C262.151 18.3351 261.226 19.1321 260.015 19.6847C258.804 20.2372 257.337 20.5135 255.616 20.5135H251.44V27.5269H245.957V6.48686H255.616ZM254.755 16.4012C255.903 16.4012 256.763 16.1674 257.337 15.6998C257.932 15.211 258.23 14.4778 258.23 13.5002C258.23 12.5226 257.932 11.8 257.337 11.3324C256.763 10.8436 255.903 10.5992 254.755 10.5992H251.44V16.4012H254.755ZM266.868 27.5269V11.5875H271.65L271.873 15.0304C272.277 13.8402 272.872 12.9157 273.658 12.2569C274.466 11.5981 275.486 11.2687 276.719 11.2687C277.122 11.2687 277.462 11.3006 277.739 11.3643C278.036 11.4281 278.27 11.5131 278.44 11.6193L277.898 16.0824C277.686 15.9974 277.409 15.9336 277.069 15.8911C276.75 15.8273 276.357 15.7955 275.89 15.7955C275.252 15.7955 274.657 15.9336 274.105 16.2099C273.552 16.4862 273.106 16.9006 272.766 17.4532C272.447 17.9845 272.287 18.6646 272.287 19.4934V27.5269H266.868ZM288.158 27.8456C286.394 27.8456 284.863 27.5162 283.567 26.8574C282.292 26.1986 281.304 25.2528 280.602 24.0202C279.901 22.7875 279.55 21.2999 279.55 19.5572C279.55 17.8145 279.901 16.3268 280.602 15.0941C281.304 13.8615 282.281 12.9157 283.535 12.2569C284.81 11.5981 286.266 11.2687 287.903 11.2687C289.581 11.2687 291.005 11.5981 292.174 12.2569C293.364 12.8945 294.268 13.7871 294.884 14.9347C295.5 16.0611 295.808 17.3575 295.808 18.8239C295.808 19.2065 295.798 19.589 295.777 19.9716C295.755 20.3541 295.723 20.6729 295.681 20.9279H283.057V18.027H293.29L290.708 19.0152C290.708 17.7401 290.474 16.7625 290.007 16.0824C289.56 15.4023 288.859 15.0623 287.903 15.0623C287.222 15.0623 286.638 15.2216 286.149 15.5404C285.682 15.8592 285.32 16.3587 285.065 17.0387C284.832 17.7188 284.715 18.5902 284.715 19.6528C284.715 20.6942 284.853 21.5443 285.129 22.2031C285.405 22.8407 285.799 23.3082 286.309 23.6058C286.819 23.882 287.435 24.0202 288.158 24.0202C288.965 24.0202 289.603 23.8608 290.07 23.542C290.559 23.2232 290.92 22.7769 291.154 22.2031L295.49 23.6376C295.192 24.5515 294.671 25.3272 293.928 25.9648C293.205 26.5811 292.334 27.0487 291.314 27.3675C290.315 27.6862 289.263 27.8456 288.158 27.8456ZM305.535 27.8456C303.941 27.8456 302.453 27.5906 301.072 27.0806C299.712 26.5492 298.585 25.7948 297.693 24.8172L300.243 21.8206C300.774 22.5006 301.476 23.0745 302.347 23.542C303.239 23.9883 304.228 24.2115 305.312 24.2115C305.97 24.2115 306.512 24.1158 306.937 23.9246C307.362 23.7333 307.575 23.4357 307.575 23.0319C307.575 22.7344 307.469 22.5006 307.256 22.3306C307.044 22.1393 306.619 21.9799 305.981 21.8524L303.75 21.4061C301.752 21.0023 300.328 20.4073 299.478 19.6209C298.649 18.8133 298.235 17.7613 298.235 16.4649C298.235 15.5936 298.5 14.7647 299.031 13.9784C299.563 13.1708 300.381 12.5226 301.486 12.0338C302.591 11.5237 304.005 11.2687 305.726 11.2687C307.341 11.2687 308.765 11.5025 309.998 11.97C311.23 12.4376 312.208 13.1176 312.931 14.0103L310.348 16.9431C309.838 16.3055 309.18 15.8061 308.372 15.4448C307.564 15.0835 306.757 14.9029 305.949 14.9029C305.439 14.9029 305.003 14.956 304.642 15.0623C304.302 15.1473 304.047 15.2748 303.877 15.4448C303.707 15.6148 303.622 15.8273 303.622 16.0824C303.622 16.3587 303.75 16.6031 304.005 16.8156C304.281 17.0069 304.78 17.1769 305.503 17.3256L308.404 17.8995C310.04 18.197 311.22 18.7389 311.942 19.5253C312.665 20.3116 313.026 21.2574 313.026 22.3625C313.026 23.4039 312.75 24.339 312.197 25.1678C311.645 25.9967 310.816 26.6555 309.711 27.1443C308.606 27.6119 307.214 27.8456 305.535 27.8456ZM322.501 6.51874V21.8524C322.501 22.6175 322.681 23.1701 323.043 23.5101C323.425 23.8289 323.946 23.9883 324.605 23.9883C325.115 23.9883 325.55 23.9352 325.912 23.8289C326.294 23.7014 326.634 23.5208 326.932 23.287L327.506 26.6342C326.974 27.0168 326.305 27.3143 325.497 27.5269C324.69 27.7394 323.861 27.8456 323.011 27.8456C321.799 27.8456 320.747 27.6756 319.855 27.3356C318.983 26.9955 318.303 26.4536 317.815 25.7098C317.347 24.9659 317.103 23.9777 317.081 22.745V8.01704L322.501 6.51874ZM327.251 11.5875V15.4448H314.34V11.5875H327.251ZM337.341 11.2687C339.02 11.2687 340.486 11.5981 341.74 12.2569C343.015 12.8945 344.004 13.8402 344.705 15.0941C345.428 16.3268 345.789 17.8145 345.789 19.5572C345.789 21.2999 345.428 22.7982 344.705 24.0521C344.004 25.2847 343.015 26.2305 341.74 26.8893C340.486 27.5269 339.02 27.8456 337.341 27.8456C335.705 27.8456 334.249 27.5269 332.974 26.8893C331.698 26.2305 330.7 25.2847 329.977 24.0521C329.276 22.7982 328.925 21.2999 328.925 19.5572C328.925 17.8145 329.276 16.3268 329.977 15.0941C330.7 13.8402 331.698 12.8945 332.974 12.2569C334.249 11.5981 335.705 11.2687 337.341 11.2687ZM337.341 15.126C336.725 15.126 336.193 15.2748 335.747 15.5723C335.301 15.8698 334.961 16.348 334.727 17.0069C334.493 17.6657 334.376 18.5158 334.376 19.5572C334.376 20.5985 334.493 21.4486 334.727 22.1075C334.961 22.745 335.301 23.2232 335.747 23.542C336.193 23.8395 336.725 23.9883 337.341 23.9883C337.979 23.9883 338.521 23.8395 338.967 23.542C339.413 23.2232 339.753 22.745 339.987 22.1075C340.221 21.4486 340.338 20.5985 340.338 19.5572C340.338 18.5158 340.221 17.6657 339.987 17.0069C339.753 16.348 339.413 15.8698 338.967 15.5723C338.521 15.2748 337.979 15.126 337.341 15.126Z" fill="white"/>
</g>
<path d="M439.15 30.45V4.33904H449.504C451.269 4.33904 452.713 4.69565 453.838 5.40886C454.974 6.10999 455.814 7.01057 456.358 8.11062C456.914 9.21066 457.192 10.347 457.192 11.5195C457.192 12.9581 456.848 14.179 456.158 15.1823C455.482 16.1857 454.557 16.8626 453.384 17.2132V16.3065C455.028 16.6813 456.273 17.461 457.12 18.6456C457.978 19.8303 458.407 21.1782 458.407 22.6892C458.407 24.2365 458.111 25.5904 457.518 26.7509C456.926 27.9114 456.044 28.818 454.871 29.4708C453.711 30.1236 452.272 30.45 450.556 30.45H439.15ZM443.574 26.3339H450.012C450.773 26.3339 451.456 26.1828 452.061 25.8805C452.665 25.5662 453.136 25.1311 453.475 24.575C453.825 24.0068 454.001 23.3359 454.001 22.5623C454.001 21.8612 453.85 21.2326 453.547 20.6765C453.245 20.1204 452.804 19.6792 452.224 19.3528C451.643 19.0143 450.948 18.8451 450.138 18.8451H443.574V26.3339ZM443.574 14.7653H449.449C450.078 14.7653 450.64 14.6444 451.136 14.4026C451.631 14.1609 452.024 13.8042 452.314 13.3328C452.605 12.8614 452.75 12.2811 452.75 11.5921C452.75 10.6854 452.459 9.92992 451.879 9.3255C451.299 8.72108 450.489 8.41887 449.449 8.41887H443.574V14.7653ZM470.678 30.9939C468.719 30.9939 467.009 30.5527 465.546 29.6703C464.083 28.7878 462.947 27.5729 462.137 26.0256C461.339 24.4662 460.94 22.6771 460.94 20.6584C460.94 18.6033 461.351 16.8022 462.173 15.2549C462.995 13.7075 464.138 12.4987 465.6 11.6283C467.063 10.758 468.756 10.3228 470.678 10.3228C472.648 10.3228 474.365 10.764 475.827 11.6465C477.29 12.5289 478.426 13.7498 479.236 15.3092C480.046 16.8566 480.451 18.6396 480.451 20.6584C480.451 22.6892 480.04 24.4843 479.218 26.0437C478.408 27.591 477.272 28.8059 475.809 29.6884C474.346 30.5587 472.636 30.9939 470.678 30.9939ZM470.678 26.896C472.418 26.896 473.712 26.3157 474.558 25.1552C475.404 23.9948 475.827 22.4958 475.827 20.6584C475.827 18.7605 475.398 17.2494 474.54 16.1252C473.682 14.9889 472.394 14.4208 470.678 14.4208C469.505 14.4208 468.538 14.6867 467.776 15.2186C467.027 15.7384 466.471 16.4697 466.108 17.4126C465.746 18.3434 465.564 19.4253 465.564 20.6584C465.564 22.5562 465.993 24.0733 466.852 25.2096C467.722 26.3339 468.997 26.896 470.678 26.896ZM484.809 30.45V3.79506H489.179V30.45H484.809ZM502.462 30.9939C500.661 30.9939 499.089 30.5406 497.747 29.634C496.405 28.7274 495.366 27.4943 494.628 25.9349C493.891 24.3755 493.522 22.6167 493.522 20.6584C493.522 18.6759 493.891 16.911 494.628 15.3636C495.378 13.8042 496.436 12.5773 497.802 11.6827C499.168 10.7761 500.775 10.3228 502.625 10.3228C504.487 10.3228 506.046 10.7761 507.303 11.6827C508.572 12.5773 509.533 13.8042 510.186 15.3636C510.839 16.923 511.165 18.688 511.165 20.6584C511.165 22.6046 510.839 24.3634 510.186 25.9349C509.533 27.4943 508.56 28.7274 507.267 29.634C505.973 30.5406 504.372 30.9939 502.462 30.9939ZM503.133 27.0773C504.305 27.0773 505.248 26.8113 505.961 26.2795C506.687 25.7355 507.212 24.98 507.539 24.0129C507.877 23.0458 508.047 21.9276 508.047 20.6584C508.047 19.377 507.877 18.2588 507.539 17.3038C507.212 16.3368 506.699 15.5873 505.998 15.0554C505.296 14.5114 504.39 14.2394 503.278 14.2394C502.105 14.2394 501.138 14.5295 500.376 15.1098C499.615 15.6779 499.053 16.4516 498.69 17.4308C498.327 18.3978 498.146 19.4737 498.146 20.6584C498.146 21.8551 498.321 22.9431 498.672 23.9222C499.035 24.8893 499.585 25.6569 500.322 26.2251C501.059 26.7932 501.996 27.0773 503.133 27.0773ZM508.047 30.45V16.7055H507.503V4.33904H511.909V30.45H508.047ZM525.642 30.9939C523.684 30.9939 521.973 30.5527 520.51 29.6703C519.048 28.7878 517.911 27.5729 517.102 26.0256C516.304 24.4662 515.905 22.6771 515.905 20.6584C515.905 18.6033 516.316 16.8022 517.138 15.2549C517.96 13.7075 519.102 12.4987 520.565 11.6283C522.028 10.758 523.72 10.3228 525.642 10.3228C527.612 10.3228 529.329 10.764 530.792 11.6465C532.254 12.5289 533.391 13.7498 534.201 15.3092C535.01 16.8566 535.415 18.6396 535.415 20.6584C535.415 22.6892 535.004 24.4843 534.182 26.0437C533.372 27.591 532.236 28.8059 530.773 29.6884C529.311 30.5587 527.6 30.9939 525.642 30.9939ZM525.642 26.896C527.383 26.896 528.676 26.3157 529.522 25.1552C530.369 23.9948 530.792 22.4958 530.792 20.6584C530.792 18.7605 530.362 17.2494 529.504 16.1252C528.646 14.9889 527.359 14.4208 525.642 14.4208C524.469 14.4208 523.502 14.6867 522.741 15.2186C521.991 15.7384 521.435 16.4697 521.073 17.4126C520.71 18.3434 520.529 19.4253 520.529 20.6584C520.529 22.5562 520.958 24.0733 521.816 25.2096C522.686 26.3339 523.962 26.896 525.642 26.896Z" fill="white"/>
<path d="M403.382 16.45H417.7C422.583 16.45 426.542 20.4087 426.542 25.2921C426.542 30.1754 422.583 34.1342 417.7 34.1342H403.382V16.45Z" fill="white"/>
<path d="M403.382 0.976318H412.862C416.524 0.976318 419.493 3.94538 419.493 7.6079C419.493 11.2704 416.524 14.2395 412.862 14.2395H403.382V0.976318Z" fill="white"/>
<g clip-path="url(#clip3_0_455)">
<g clip-path="url(#clip4_0_455)">
<path d="M614.082 2.69273C614.045 2.62059 614.022 2.54179 614.015 2.46082C614.008 2.37986 614.017 2.29833 614.042 2.22088C614.066 2.14343 614.106 2.07159 614.158 2.00946C614.211 1.94732 614.275 1.89611 614.347 1.85876C616.561 0.73277 619.021 0.175537 621.504 0.237293C623.988 0.29905 626.417 0.977855 628.572 2.21251C628.643 2.25317 628.705 2.30743 628.754 2.37215C628.804 2.43687 628.84 2.51078 628.861 2.58962C628.882 2.66845 628.887 2.75065 628.876 2.83146C628.865 2.91228 628.838 2.99012 628.797 3.06049L621.676 15.2818C621.622 15.3754 621.544 15.453 621.45 15.5069C621.356 15.5608 621.25 15.5891 621.141 15.589H621.126C621.015 15.586 620.907 15.5534 620.813 15.4946C620.719 15.4358 620.642 15.3529 620.591 15.2545L614.082 2.69273ZM620.759 18.8483V18.8471L614.25 6.28529C614.175 6.13986 614.045 6.03024 613.889 5.98037C613.732 5.9305 613.563 5.94442 613.417 6.0191C611.682 6.90861 610.14 8.13195 608.879 9.61893C607.619 11.1059 606.664 12.8272 606.07 14.6841C605.476 16.541 605.255 18.4969 605.419 20.4395C605.583 22.3821 606.129 24.2732 607.026 26.0043C607.922 27.7353 609.152 29.2722 610.644 30.5268C612.136 31.7814 613.862 32.729 615.721 33.3151C617.58 33.9012 619.537 34.1143 621.479 33.9423C623.421 33.7702 625.31 33.2164 627.037 32.3125C627.182 32.2365 627.291 32.1062 627.341 31.9501C627.39 31.7939 627.376 31.6246 627.301 31.479L620.759 18.8483ZM628.39 30.7218L628.439 30.8209C628.514 30.967 628.643 31.0781 628.798 31.1306C628.862 31.1517 628.929 31.1601 628.996 31.1553C629.094 31.1526 629.191 31.1316 629.281 31.0934C629.507 30.9817 629.726 30.8576 629.938 30.7218C630.568 30.3563 631.168 29.9422 631.734 29.4832H627.745L628.39 30.7218ZM627.101 28.2445H633.084C633.469 27.858 633.825 27.4441 634.149 27.0059H626.457L627.101 28.2445ZM625.826 25.7673H635.029C635.282 25.3696 635.51 24.9558 635.71 24.5286H625.181L625.826 25.7673ZM624.537 23.29H636.255C636.419 22.8856 636.56 22.472 636.676 22.0513H623.893L624.537 23.29ZM623.249 20.8127H636.986C637.06 20.4039 637.122 19.9952 637.159 19.574H622.617L623.249 20.8127ZM629.888 5.15627C629.819 5.11304 629.741 5.08515 629.66 5.07447C629.578 5.06379 629.496 5.07056 629.418 5.09434C629.337 5.11266 629.262 5.14744 629.196 5.19648C629.13 5.24552 629.074 5.30775 629.034 5.37922L628.699 5.949H631.09C630.704 5.66346 630.303 5.39883 629.888 5.15627ZM632.589 7.18764H627.981L627.262 8.42628H633.765C633.399 7.98967 633.006 7.57601 632.589 7.18764ZM634.694 9.66492H626.532L625.813 10.9036H635.45C635.226 10.474 634.974 10.0602 634.694 9.66492ZM636.044 12.1422H625.095L624.376 13.3808H636.527C636.39 12.9591 636.229 12.5455 636.044 12.1422ZM636.874 14.6195H623.646L622.927 15.8581H637.097C637.048 15.4411 636.974 15.0275 636.874 14.6195ZM637.221 17.0968H622.209L621.911 17.6046C621.858 17.694 621.828 17.796 621.826 17.9002C621.824 18.0045 621.849 18.1076 621.899 18.1992L621.973 18.3354H637.246C637.258 18.2115 637.258 18.0753 637.258 17.9514C637.258 17.6665 637.246 17.3817 637.221 17.0968Z" fill="white"/>
<path d="M613.798 5.40689C613.571 4.97667 613.036 4.80987 612.619 5.06066C609.32 7.04602 606.854 10.1819 605.711 13.8808C604.48 17.8609 604.882 22.1668 606.826 25.8512C608.77 29.5356 612.099 32.2966 616.079 33.527C619.778 34.6704 623.758 34.4048 627.259 32.801C627.701 32.5984 627.865 32.0631 627.638 31.6329L620.718 18.5199L613.798 5.40689Z" fill="white"/>
</g>
<path d="M659.358 6.48686C661.08 6.48686 662.546 6.76315 663.758 7.31571C664.969 7.86828 665.894 8.66525 666.531 9.70662C667.169 10.748 667.488 12.0125 667.488 13.5002C667.488 14.9879 667.169 16.2524 666.531 17.2938C665.894 18.3351 664.969 19.1321 663.758 19.6847C662.546 20.2372 661.08 20.5135 659.358 20.5135H655.182V27.5269H649.699V6.48686H659.358ZM658.498 16.4012C659.645 16.4012 660.506 16.1674 661.08 15.6998C661.675 15.211 661.973 14.4778 661.973 13.5002C661.973 12.5226 661.675 11.8 661.08 11.3324C660.506 10.8436 659.645 10.5992 658.498 10.5992H655.182V16.4012H658.498ZM670.611 27.5269V11.5875H675.393L675.616 15.0304C676.019 13.8402 676.615 12.9157 677.401 12.2569C678.208 11.5981 679.229 11.2687 680.461 11.2687C680.865 11.2687 681.205 11.3006 681.481 11.3643C681.779 11.4281 682.013 11.5131 682.183 11.6193L681.641 16.0824C681.428 15.9974 681.152 15.9336 680.812 15.8911C680.493 15.8273 680.1 15.7955 679.632 15.7955C678.995 15.7955 678.4 15.9336 677.847 16.2099C677.295 16.4862 676.848 16.9006 676.508 17.4532C676.189 17.9845 676.03 18.6646 676.03 19.4934V27.5269H670.611ZM691.9 27.8456C690.136 27.8456 688.606 27.5162 687.31 26.8574C686.035 26.1986 685.046 25.2528 684.345 24.0202C683.644 22.7875 683.293 21.2999 683.293 19.5572C683.293 17.8145 683.644 16.3268 684.345 15.0941C685.046 13.8615 686.024 12.9157 687.278 12.2569C688.553 11.5981 690.009 11.2687 691.645 11.2687C693.324 11.2687 694.748 11.5981 695.917 12.2569C697.107 12.8945 698.01 13.7871 698.627 14.9347C699.243 16.0611 699.551 17.3575 699.551 18.8239C699.551 19.2065 699.541 19.589 699.519 19.9716C699.498 20.3541 699.466 20.6729 699.424 20.9279H686.8V18.027H697.033L694.451 19.0152C694.451 17.7401 694.217 16.7625 693.749 16.0824C693.303 15.4023 692.602 15.0623 691.645 15.0623C690.965 15.0623 690.381 15.2216 689.892 15.5404C689.424 15.8592 689.063 16.3587 688.808 17.0387C688.574 17.7188 688.457 18.5902 688.457 19.6528C688.457 20.6942 688.595 21.5443 688.872 22.2031C689.148 22.8407 689.541 23.3082 690.051 23.6058C690.561 23.882 691.178 24.0202 691.9 24.0202C692.708 24.0202 693.345 23.8608 693.813 23.542C694.302 23.2232 694.663 22.7769 694.897 22.2031L699.232 23.6376C698.935 24.5515 698.414 25.3272 697.67 25.9648C696.948 26.5811 696.076 27.0487 695.056 27.3675C694.057 27.6862 693.005 27.8456 691.9 27.8456ZM709.277 27.8456C707.683 27.8456 706.196 27.5906 704.814 27.0806C703.454 26.5492 702.328 25.7948 701.435 24.8172L703.986 21.8206C704.517 22.5006 705.218 23.0745 706.09 23.542C706.982 23.9883 707.97 24.2115 709.054 24.2115C709.713 24.2115 710.255 24.1158 710.68 23.9246C711.105 23.7333 711.318 23.4357 711.318 23.0319C711.318 22.7344 711.211 22.5006 710.999 22.3306C710.786 22.1393 710.361 21.9799 709.724 21.8524L707.492 21.4061C705.494 21.0023 704.071 20.4073 703.22 19.6209C702.392 18.8133 701.977 17.7613 701.977 16.4649C701.977 15.5936 702.243 14.7647 702.774 13.9784C703.305 13.1708 704.124 12.5226 705.229 12.0338C706.334 11.5237 707.747 11.2687 709.469 11.2687C711.084 11.2687 712.508 11.5025 713.74 11.97C714.973 12.4376 715.951 13.1176 716.673 14.0103L714.091 16.9431C713.581 16.3055 712.922 15.8061 712.115 15.4448C711.307 15.0835 710.499 14.9029 709.692 14.9029C709.182 14.9029 708.746 14.956 708.385 15.0623C708.045 15.1473 707.79 15.2748 707.62 15.4448C707.45 15.6148 707.365 15.8273 707.365 16.0824C707.365 16.3587 707.492 16.6031 707.747 16.8156C708.024 17.0069 708.523 17.1769 709.246 17.3256L712.147 17.8995C713.783 18.197 714.962 18.7389 715.685 19.5253C716.408 20.3116 716.769 21.2574 716.769 22.3625C716.769 23.4039 716.493 24.339 715.94 25.1678C715.388 25.9967 714.559 26.6555 713.454 27.1443C712.348 27.6119 710.956 27.8456 709.277 27.8456ZM726.243 6.51874V21.8524C726.243 22.6175 726.424 23.1701 726.785 23.5101C727.168 23.8289 727.689 23.9883 728.347 23.9883C728.857 23.9883 729.293 23.9352 729.654 23.8289C730.037 23.7014 730.377 23.5208 730.675 23.287L731.248 26.6342C730.717 27.0168 730.048 27.3143 729.24 27.5269C728.432 27.7394 727.604 27.8456 726.753 27.8456C725.542 27.8456 724.49 27.6756 723.597 27.3356C722.726 26.9955 722.046 26.4536 721.557 25.7098C721.09 24.9659 720.845 23.9777 720.824 22.745V8.01704L726.243 6.51874ZM730.993 11.5875V15.4448H718.082V11.5875H730.993ZM741.084 11.2687C742.763 11.2687 744.229 11.5981 745.483 12.2569C746.758 12.8945 747.746 13.8402 748.448 15.0941C749.17 16.3268 749.532 17.8145 749.532 19.5572C749.532 21.2999 749.17 22.7982 748.448 24.0521C747.746 25.2847 746.758 26.2305 745.483 26.8893C744.229 27.5269 742.763 27.8456 741.084 27.8456C739.447 27.8456 737.991 27.5269 736.716 26.8893C735.441 26.2305 734.442 25.2847 733.72 24.0521C733.018 22.7982 732.668 21.2999 732.668 19.5572C732.668 17.8145 733.018 16.3268 733.72 15.0941C734.442 13.8402 735.441 12.8945 736.716 12.2569C737.991 11.5981 739.447 11.2687 741.084 11.2687ZM741.084 15.126C740.467 15.126 739.936 15.2748 739.49 15.5723C739.043 15.8698 738.703 16.348 738.47 17.0069C738.236 17.6657 738.119 18.5158 738.119 19.5572C738.119 20.5985 738.236 21.4486 738.47 22.1075C738.703 22.745 739.043 23.2232 739.49 23.542C739.936 23.8395 740.467 23.9883 741.084 23.9883C741.721 23.9883 742.263 23.8395 742.71 23.542C743.156 23.2232 743.496 22.745 743.73 22.1075C743.963 21.4486 744.08 20.5985 744.08 19.5572C744.08 18.5158 743.963 17.6657 743.73 17.0069C743.496 16.348 743.156 15.8698 742.71 15.5723C742.263 15.2748 741.721 15.126 741.084 15.126Z" fill="white"/>
</g>
<path d="M842.532 30.45V4.33904H852.886C854.651 4.33904 856.096 4.69565 857.22 5.40886C858.356 6.10999 859.196 7.01057 859.74 8.11062C860.296 9.21066 860.574 10.347 860.574 11.5195C860.574 12.9581 860.23 14.179 859.541 15.1823C858.864 16.1857 857.939 16.8626 856.767 17.2132V16.3065C858.411 16.6813 859.656 17.461 860.502 18.6456C861.36 19.8303 861.789 21.1782 861.789 22.6892C861.789 24.2365 861.493 25.5904 860.901 26.7509C860.308 27.9114 859.426 28.818 858.253 29.4708C857.093 30.1236 855.654 30.45 853.938 30.45H842.532ZM846.957 26.3339H853.394C854.155 26.3339 854.838 26.1828 855.443 25.8805C856.047 25.5662 856.519 25.1311 856.857 24.575C857.208 24.0068 857.383 23.3359 857.383 22.5623C857.383 21.8612 857.232 21.2326 856.93 20.6765C856.628 20.1204 856.186 19.6792 855.606 19.3528C855.026 19.0143 854.331 18.8451 853.521 18.8451H846.957V26.3339ZM846.957 14.7653H852.832C853.46 14.7653 854.022 14.6444 854.518 14.4026C855.014 14.1609 855.407 13.8042 855.697 13.3328C855.987 12.8614 856.132 12.2811 856.132 11.5921C856.132 10.6854 855.842 9.92992 855.262 9.3255C854.681 8.72108 853.871 8.41887 852.832 8.41887H846.957V14.7653ZM874.06 30.9939C872.102 30.9939 870.391 30.5527 868.928 29.6703C867.466 28.7878 866.329 27.5729 865.519 26.0256C864.722 24.4662 864.323 22.6771 864.323 20.6584C864.323 18.6033 864.734 16.8022 865.556 15.2549C866.378 13.7075 867.52 12.4987 868.983 11.6283C870.445 10.758 872.138 10.3228 874.06 10.3228C876.03 10.3228 877.747 10.764 879.21 11.6465C880.672 12.5289 881.809 13.7498 882.618 15.3092C883.428 16.8566 883.833 18.6396 883.833 20.6584C883.833 22.6892 883.422 24.4843 882.6 26.0437C881.79 27.591 880.654 28.8059 879.191 29.6884C877.729 30.5587 876.018 30.9939 874.06 30.9939ZM874.06 26.896C875.801 26.896 877.094 26.3157 877.94 25.1552C878.786 23.9948 879.21 22.4958 879.21 20.6584C879.21 18.7605 878.78 17.2494 877.922 16.1252C877.064 14.9889 875.776 14.4208 874.06 14.4208C872.887 14.4208 871.92 14.6867 871.159 15.2186C870.409 15.7384 869.853 16.4697 869.49 17.4126C869.128 18.3434 868.947 19.4253 868.947 20.6584C868.947 22.5562 869.376 24.0733 870.234 25.2096C871.104 26.3339 872.38 26.896 874.06 26.896ZM888.191 30.45V3.79506H892.561V30.45H888.191ZM905.844 30.9939C904.043 30.9939 902.471 30.5406 901.13 29.634C899.788 28.7274 898.748 27.4943 898.011 25.9349C897.273 24.3755 896.905 22.6167 896.905 20.6584C896.905 18.6759 897.273 16.911 898.011 15.3636C898.76 13.8042 899.818 12.5773 901.184 11.6827C902.55 10.7761 904.158 10.3228 906.007 10.3228C907.869 10.3228 909.428 10.7761 910.685 11.6827C911.955 12.5773 912.916 13.8042 913.569 15.3636C914.221 16.923 914.548 18.688 914.548 20.6584C914.548 22.6046 914.221 24.3634 913.569 25.9349C912.916 27.4943 911.943 28.7274 910.649 29.634C909.356 30.5406 907.754 30.9939 905.844 30.9939ZM906.515 27.0773C907.688 27.0773 908.63 26.8113 909.344 26.2795C910.069 25.7355 910.595 24.98 910.921 24.0129C911.26 23.0458 911.429 21.9276 911.429 20.6584C911.429 19.377 911.26 18.2588 910.921 17.3038C910.595 16.3368 910.081 15.5873 909.38 15.0554C908.679 14.5114 907.772 14.2394 906.66 14.2394C905.487 14.2394 904.52 14.5295 903.759 15.1098C902.997 15.6779 902.435 16.4516 902.072 17.4308C901.71 18.3978 901.528 19.4737 901.528 20.6584C901.528 21.8551 901.704 22.9431 902.054 23.9222C902.417 24.8893 902.967 25.6569 903.704 26.2251C904.442 26.7932 905.379 27.0773 906.515 27.0773ZM911.429 30.45V16.7055H910.885V4.33904H915.291V30.45H911.429ZM929.024 30.9939C927.066 30.9939 925.355 30.5527 923.893 29.6703C922.43 28.7878 921.294 27.5729 920.484 26.0256C919.686 24.4662 919.287 22.6771 919.287 20.6584C919.287 18.6033 919.698 16.8022 920.52 15.2549C921.342 13.7075 922.484 12.4987 923.947 11.6283C925.41 10.758 927.102 10.3228 929.024 10.3228C930.995 10.3228 932.711 10.764 934.174 11.6465C935.637 12.5289 936.773 13.7498 937.583 15.3092C938.393 16.8566 938.798 18.6396 938.798 20.6584C938.798 22.6892 938.387 24.4843 937.565 26.0437C936.755 27.591 935.618 28.8059 934.156 29.6884C932.693 30.5587 930.983 30.9939 929.024 30.9939ZM929.024 26.896C930.765 26.896 932.058 26.3157 932.905 25.1552C933.751 23.9948 934.174 22.4958 934.174 20.6584C934.174 18.7605 933.745 17.2494 932.887 16.1252C932.028 14.9889 930.741 14.4208 929.024 14.4208C927.852 14.4208 926.885 14.6867 926.123 15.2186C925.374 15.7384 924.818 16.4697 924.455 17.4126C924.092 18.3434 923.911 19.4253 923.911 20.6584C923.911 22.5562 924.34 24.0733 925.198 25.2096C926.069 26.3339 927.344 26.896 929.024 26.896Z" fill="white"/>
<path d="M806.765 16.45H821.082C825.966 16.45 829.924 20.4087 829.924 25.2921C829.924 30.1754 825.966 34.1342 821.082 34.1342H806.765V16.45Z" fill="white"/>
<path d="M806.765 0.976318H816.244C819.907 0.976318 822.876 3.94538 822.876 7.6079C822.876 11.2704 819.907 14.2395 816.244 14.2395H806.765V0.976318Z" fill="white"/>
<g clip-path="url(#clip5_0_455)">
<g clip-path="url(#clip6_0_455)">
<path d="M1017.83 2.69273C1017.79 2.62059 1017.76 2.54179 1017.76 2.46082C1017.75 2.37986 1017.76 2.29833 1017.78 2.22088C1017.81 2.14343 1017.85 2.07159 1017.9 2.00946C1017.95 1.94732 1018.02 1.89611 1018.09 1.85876C1020.3 0.73277 1022.76 0.175537 1025.25 0.237293C1027.73 0.29905 1030.16 0.977855 1032.32 2.21251C1032.39 2.25317 1032.45 2.30743 1032.5 2.37215C1032.55 2.43687 1032.58 2.51078 1032.6 2.58962C1032.63 2.66845 1032.63 2.75065 1032.62 2.83146C1032.61 2.91228 1032.58 2.99012 1032.54 3.06049L1025.42 15.2818C1025.36 15.3754 1025.29 15.453 1025.19 15.5069C1025.1 15.5608 1024.99 15.5891 1024.88 15.589H1024.87C1024.76 15.586 1024.65 15.5534 1024.56 15.4946C1024.46 15.4358 1024.39 15.3529 1024.33 15.2545L1017.83 2.69273ZM1024.5 18.8483V18.8471L1017.99 6.28529C1017.92 6.13986 1017.79 6.03024 1017.63 5.98037C1017.48 5.9305 1017.31 5.94442 1017.16 6.0191C1015.43 6.90861 1013.88 8.13195 1012.62 9.61893C1011.36 11.1059 1010.41 12.8272 1009.81 14.6841C1009.22 16.541 1009 18.4969 1009.16 20.4395C1009.33 22.3821 1009.87 24.2732 1010.77 26.0043C1011.67 27.7353 1012.89 29.2722 1014.39 30.5268C1015.88 31.7814 1017.6 32.729 1019.46 33.3151C1021.32 33.9012 1023.28 34.1143 1025.22 33.9423C1027.16 33.7702 1029.05 33.2164 1030.78 32.3125C1030.93 32.2365 1031.03 32.1062 1031.08 31.9501C1031.13 31.7939 1031.12 31.6246 1031.04 31.479L1024.5 18.8483ZM1032.13 30.7218L1032.18 30.8209C1032.26 30.967 1032.39 31.0781 1032.54 31.1306C1032.6 31.1517 1032.67 31.1601 1032.74 31.1553C1032.84 31.1526 1032.93 31.1316 1033.02 31.0934C1033.25 30.9817 1033.47 30.8576 1033.68 30.7218C1034.31 30.3563 1034.91 29.9422 1035.48 29.4832H1031.49L1032.13 30.7218ZM1030.84 28.2445H1036.83C1037.21 27.858 1037.57 27.4441 1037.89 27.0059H1030.2L1030.84 28.2445ZM1029.57 25.7673H1038.77C1039.03 25.3696 1039.25 24.9558 1039.45 24.5286H1028.92L1029.57 25.7673ZM1028.28 23.29H1040C1040.16 22.8856 1040.3 22.472 1040.42 22.0513H1027.64L1028.28 23.29ZM1026.99 20.8127H1040.73C1040.8 20.4039 1040.86 19.9952 1040.9 19.574H1026.36L1026.99 20.8127ZM1033.63 5.15627C1033.56 5.11304 1033.48 5.08515 1033.4 5.07447C1033.32 5.06379 1033.24 5.07056 1033.16 5.09434C1033.08 5.11266 1033 5.14744 1032.94 5.19648C1032.87 5.24552 1032.82 5.30775 1032.78 5.37922L1032.44 5.949H1034.83C1034.45 5.66346 1034.05 5.39883 1033.63 5.15627ZM1036.33 7.18764H1031.72L1031.01 8.42628H1037.51C1037.14 7.98967 1036.75 7.57601 1036.33 7.18764ZM1038.44 9.66492H1030.27L1029.56 10.9036H1039.19C1038.97 10.474 1038.72 10.0602 1038.44 9.66492ZM1039.79 12.1422H1028.84L1028.12 13.3808H1040.27C1040.13 12.9591 1039.97 12.5455 1039.79 12.1422ZM1040.62 14.6195H1027.39L1026.67 15.8581H1040.84C1040.79 15.4411 1040.72 15.0275 1040.62 14.6195ZM1040.96 17.0968H1025.95L1025.65 17.6046C1025.6 17.694 1025.57 17.796 1025.57 17.9002C1025.57 18.0045 1025.59 18.1076 1025.64 18.1992L1025.72 18.3354H1040.99C1041 18.2115 1041 18.0753 1041 17.9514C1041 17.6665 1040.99 17.3817 1040.96 17.0968Z" fill="white"/>
<path d="M1017.54 5.40689C1017.31 4.97667 1016.78 4.80987 1016.36 5.06066C1013.06 7.04602 1010.6 10.1819 1009.45 13.8808C1008.22 17.8609 1008.62 22.1668 1010.57 25.8512C1012.51 29.5356 1015.84 32.2966 1019.82 33.527C1023.52 34.6704 1027.5 34.4048 1031 32.801C1031.44 32.5984 1031.61 32.0631 1031.38 31.6329L1024.46 18.5199L1017.54 5.40689Z" fill="white"/>
</g>
<path d="M1063.1 6.48686C1064.82 6.48686 1066.29 6.76315 1067.5 7.31571C1068.71 7.86828 1069.64 8.66525 1070.27 9.70662C1070.91 10.748 1071.23 12.0125 1071.23 13.5002C1071.23 14.9879 1070.91 16.2524 1070.27 17.2938C1069.64 18.3351 1068.71 19.1321 1067.5 19.6847C1066.29 20.2372 1064.82 20.5135 1063.1 20.5135H1058.93V27.5269H1053.44V6.48686H1063.1ZM1062.24 16.4012C1063.39 16.4012 1064.25 16.1674 1064.82 15.6998C1065.42 15.211 1065.72 14.4778 1065.72 13.5002C1065.72 12.5226 1065.42 11.8 1064.82 11.3324C1064.25 10.8436 1063.39 10.5992 1062.24 10.5992H1058.93V16.4012H1062.24ZM1074.35 27.5269V11.5875H1079.14L1079.36 15.0304C1079.76 13.8402 1080.36 12.9157 1081.14 12.2569C1081.95 11.5981 1082.97 11.2687 1084.2 11.2687C1084.61 11.2687 1084.95 11.3006 1085.22 11.3643C1085.52 11.4281 1085.76 11.5131 1085.93 11.6193L1085.38 16.0824C1085.17 15.9974 1084.89 15.9336 1084.55 15.8911C1084.24 15.8273 1083.84 15.7955 1083.38 15.7955C1082.74 15.7955 1082.14 15.9336 1081.59 16.2099C1081.04 16.4862 1080.59 16.9006 1080.25 17.4532C1079.93 17.9845 1079.77 18.6646 1079.77 19.4934V27.5269H1074.35ZM1095.64 27.8456C1093.88 27.8456 1092.35 27.5162 1091.05 26.8574C1089.78 26.1986 1088.79 25.2528 1088.09 24.0202C1087.39 22.7875 1087.04 21.2999 1087.04 19.5572C1087.04 17.8145 1087.39 16.3268 1088.09 15.0941C1088.79 13.8615 1089.77 12.9157 1091.02 12.2569C1092.3 11.5981 1093.75 11.2687 1095.39 11.2687C1097.07 11.2687 1098.49 11.5981 1099.66 12.2569C1100.85 12.8945 1101.75 13.7871 1102.37 14.9347C1102.99 16.0611 1103.29 17.3575 1103.29 18.8239C1103.29 19.2065 1103.28 19.589 1103.26 19.9716C1103.24 20.3541 1103.21 20.6729 1103.17 20.9279H1090.54V18.027H1100.78L1098.19 19.0152C1098.19 17.7401 1097.96 16.7625 1097.49 16.0824C1097.05 15.4023 1096.34 15.0623 1095.39 15.0623C1094.71 15.0623 1094.12 15.2216 1093.63 15.5404C1093.17 15.8592 1092.81 16.3587 1092.55 17.0387C1092.32 17.7188 1092.2 18.5902 1092.2 19.6528C1092.2 20.6942 1092.34 21.5443 1092.61 22.2031C1092.89 22.8407 1093.28 23.3082 1093.79 23.6058C1094.3 23.882 1094.92 24.0202 1095.64 24.0202C1096.45 24.0202 1097.09 23.8608 1097.56 23.542C1098.04 23.2232 1098.41 22.7769 1098.64 22.2031L1102.98 23.6376C1102.68 24.5515 1102.16 25.3272 1101.41 25.9648C1100.69 26.5811 1099.82 27.0487 1098.8 27.3675C1097.8 27.6862 1096.75 27.8456 1095.64 27.8456ZM1113.02 27.8456C1111.43 27.8456 1109.94 27.5906 1108.56 27.0806C1107.2 26.5492 1106.07 25.7948 1105.18 24.8172L1107.73 21.8206C1108.26 22.5006 1108.96 23.0745 1109.83 23.542C1110.73 23.9883 1111.71 24.2115 1112.8 24.2115C1113.46 24.2115 1114 24.1158 1114.42 23.9246C1114.85 23.7333 1115.06 23.4357 1115.06 23.0319C1115.06 22.7344 1114.95 22.5006 1114.74 22.3306C1114.53 22.1393 1114.1 21.9799 1113.47 21.8524L1111.24 21.4061C1109.24 21.0023 1107.81 20.4073 1106.96 19.6209C1106.13 18.8133 1105.72 17.7613 1105.72 16.4649C1105.72 15.5936 1105.99 14.7647 1106.52 13.9784C1107.05 13.1708 1107.87 12.5226 1108.97 12.0338C1110.08 11.5237 1111.49 11.2687 1113.21 11.2687C1114.83 11.2687 1116.25 11.5025 1117.48 11.97C1118.72 12.4376 1119.69 13.1176 1120.42 14.0103L1117.83 16.9431C1117.32 16.3055 1116.67 15.8061 1115.86 15.4448C1115.05 15.0835 1114.24 14.9029 1113.43 14.9029C1112.92 14.9029 1112.49 14.956 1112.13 15.0623C1111.79 15.1473 1111.53 15.2748 1111.36 15.4448C1111.19 15.6148 1111.11 15.8273 1111.11 16.0824C1111.11 16.3587 1111.24 16.6031 1111.49 16.8156C1111.77 17.0069 1112.27 17.1769 1112.99 17.3256L1115.89 17.8995C1117.53 18.197 1118.71 18.7389 1119.43 19.5253C1120.15 20.3116 1120.51 21.2574 1120.51 22.3625C1120.51 23.4039 1120.24 24.339 1119.68 25.1678C1119.13 25.9967 1118.3 26.6555 1117.2 27.1443C1116.09 27.6119 1114.7 27.8456 1113.02 27.8456ZM1129.99 6.51874V21.8524C1129.99 22.6175 1130.17 23.1701 1130.53 23.5101C1130.91 23.8289 1131.43 23.9883 1132.09 23.9883C1132.6 23.9883 1133.04 23.9352 1133.4 23.8289C1133.78 23.7014 1134.12 23.5208 1134.42 23.287L1134.99 26.6342C1134.46 27.0168 1133.79 27.3143 1132.98 27.5269C1132.18 27.7394 1131.35 27.8456 1130.5 27.8456C1129.28 27.8456 1128.23 27.6756 1127.34 27.3356C1126.47 26.9955 1125.79 26.4536 1125.3 25.7098C1124.83 24.9659 1124.59 23.9777 1124.57 22.745V8.01704L1129.99 6.51874ZM1134.74 11.5875V15.4448H1121.83V11.5875H1134.74ZM1144.83 11.2687C1146.51 11.2687 1147.97 11.5981 1149.23 12.2569C1150.5 12.8945 1151.49 13.8402 1152.19 15.0941C1152.91 16.3268 1153.27 17.8145 1153.27 19.5572C1153.27 21.2999 1152.91 22.7982 1152.19 24.0521C1151.49 25.2847 1150.5 26.2305 1149.23 26.8893C1147.97 27.5269 1146.51 27.8456 1144.83 27.8456C1143.19 27.8456 1141.73 27.5269 1140.46 26.8893C1139.18 26.2305 1138.19 25.2847 1137.46 24.0521C1136.76 22.7982 1136.41 21.2999 1136.41 19.5572C1136.41 17.8145 1136.76 16.3268 1137.46 15.0941C1138.19 13.8402 1139.18 12.8945 1140.46 12.2569C1141.73 11.5981 1143.19 11.2687 1144.83 11.2687ZM1144.83 15.126C1144.21 15.126 1143.68 15.2748 1143.23 15.5723C1142.79 15.8698 1142.45 16.348 1142.21 17.0069C1141.98 17.6657 1141.86 18.5158 1141.86 19.5572C1141.86 20.5985 1141.98 21.4486 1142.21 22.1075C1142.45 22.745 1142.79 23.2232 1143.23 23.542C1143.68 23.8395 1144.21 23.9883 1144.83 23.9883C1145.46 23.9883 1146.01 23.8395 1146.45 23.542C1146.9 23.2232 1147.24 22.745 1147.47 22.1075C1147.71 21.4486 1147.82 20.5985 1147.82 19.5572C1147.82 18.5158 1147.71 17.6657 1147.47 17.0069C1147.24 16.348 1146.9 15.8698 1146.45 15.5723C1146.01 15.2748 1145.46 15.126 1144.83 15.126Z" fill="white"/>
</g>
</g>
<defs>
<clipPath id="clip0_0_455">
<rect width="1120" height="48" fill="white"/>
</clipPath>
<clipPath id="clip1_0_455">
<rect width="146.513" height="41.2903" fill="white" transform="translate(201.18 -4.47314)"/>
</clipPath>
<clipPath id="clip2_0_455">
<rect width="32.745" height="34.8351" fill="white" transform="translate(200.989 -0.319336)"/>
</clipPath>
<clipPath id="clip3_0_455">
<rect width="146.513" height="41.2903" fill="white" transform="translate(604.922 -4.47314)"/>
</clipPath>
<clipPath id="clip4_0_455">
<rect width="32.745" height="34.8351" fill="white" transform="translate(604.731 -0.319336)"/>
</clipPath>
<clipPath id="clip5_0_455">
<rect width="146.513" height="41.2903" fill="white" transform="translate(1008.67 -4.47314)"/>
</clipPath>
<clipPath id="clip6_0_455">
<rect width="32.745" height="34.8351" fill="white" transform="translate(1008.47 -0.319336)"/>
</clipPath>
</defs>
</svg>
